<?xml version="1.0" encoding="utf-8"?>
<!-- Generator: Adobe Illustrator 15.0.2, SVG Export Plug-In  -->
<!DOCTYPE svg PUBLIC "-//W3C//DTD SVG 1.1//EN" "http://www.w3.org/Graphics/SVG/1.1/DTD/svg11.dtd" [
	<!ENTITY ns_flows "http://ns.adobe.com/Flows/1.0/">
]>
<svg version="1.1"
	 xmlns="http://www.w3.org/2000/svg" xmlns:xlink="http://www.w3.org/1999/xlink" xmlns:a="http://ns.adobe.com/AdobeSVGViewerExtensions/3.0/"
	 x="0px" y="0px" width="226px" height="41.15px" viewBox="0 0 700 127" overflow="visible" enable-background="new 0 0 700 127"
	 xml:space="preserve">
<defs>
</defs>
<path fill="#F7941E" d="M14.397,34.899c0,0,45.575-29.963,96.757,0L62.78,106.067L14.397,34.899z"/>
<polygon fill="#414042" points="23.837,6.891 23.839,6.891 23.846,6.886 "/>
<path fill="#414042" d="M123.435,20.916l-0.001-0.003c-0.659-2.476-1.972-4.563-3.755-6.084c-1.781-1.526-4.001-2.479-6.426-2.866
	l-0.005,0c-1.265-0.199-2.341-0.293-3.246-0.385c-1.37-0.136-2.286-0.274-3.107-0.63c-0.821-0.357-1.702-0.965-2.932-2.354
	l-0.003-0.004c-0.625-0.701-1.376-1.231-2.192-1.671c-1.226-0.655-2.613-1.108-4.056-1.418c-1.441-0.307-2.935-0.464-4.36-0.465
	c-1.633,0.007-3.159,0.189-4.51,0.718l-0.094,0.006C88.604,5.76,88.296,5.719,87.896,5.6c-0.704-0.204-1.672-0.627-2.74-1.157
	c-1.61-0.794-3.457-1.819-5.333-2.672c-0.94-0.426-1.89-0.811-2.85-1.1c-0.96-0.287-1.931-0.483-2.936-0.485
	c-0.289,0-0.582,0.017-0.878,0.057c-1.828,0.245-3.598,0.888-5.149,1.777l-0.012,0.007c-1.721,1.004-3.018,1.666-3.94,2.053
	c-0.554,0.237-0.956,0.354-1.222,0.414c-0.023-0.069-0.048-0.146-0.074-0.232c-0.183-0.545-0.424-1.437-1.158-2.319
	c-0.365-0.436-0.858-0.841-1.441-1.133c-0.583-0.295-1.243-0.481-1.964-0.569l-0.004,0C56.93,0.086,55.707,0,54.518,0
	c-2.548-0.002-4.96,0.401-7.211,1.397c-2.101,0.925-4.016,2.377-5.779,4.325c-0.138,0.017-0.321,0.034-0.536,0.044
	c-0.409,0.023-0.931,0.033-1.524,0.033c-1.875,0-4.446-0.097-6.967-0.097c-1.653,0.001-3.287,0.041-4.748,0.189
	c-0.731,0.075-1.421,0.176-2.067,0.325c-0.646,0.153-1.251,0.342-1.845,0.674c-1.151,0.634-2.033,1.464-2.655,2.348
	c-0.629,0.888-1.031,1.763-1.5,2.687l0.032-0.064l-0.035,0.07c-0.118,0.231-0.26,0.397-0.506,0.577
	c-0.363,0.266-1.003,0.52-1.866,0.67c-0.859,0.155-1.917,0.214-3.046,0.213c-1.879,0.002-3.943-0.158-5.835-0.16
	c-1.118,0.003-2.178,0.05-3.2,0.283c-0.902,0.208-1.68,0.649-2.32,1.184c-0.962,0.808-1.652,1.825-2.14,2.898
	C0.287,18.675,0.004,19.811,0,20.961c0.005,0.948,0.19,1.962,0.863,2.88c0.335,0.452,0.805,0.853,1.353,1.111
	c0.548,0.262,1.153,0.378,1.748,0.377c0.415,0,0.828-0.054,1.242-0.149l0,0c0.635-0.146,1.294-0.208,1.991-0.208
	c1.202-0.002,2.515,0.191,3.918,0.408c1.404,0.214,2.899,0.452,4.491,0.454c1.04,0,2.124-0.106,3.222-0.408
	c1.097-0.3,2.202-0.801,3.256-1.542l0.002-0.001c2.659-1.874,4.245-3.475,5.474-4.388c0.615-0.462,1.116-0.756,1.67-0.957
	c0.555-0.199,1.199-0.321,2.152-0.323c0.879,0,2.01,0.114,3.472,0.382c0.872,0.16,1.772,0.242,2.685,0.242
	c1.565-0.001,3.166-0.24,4.691-0.771c1.522-0.532,2.978-1.365,4.181-2.565c1.236-1.233,2.262-1.991,3.071-2.417
	c0.815-0.426,1.388-0.538,1.896-0.541c0.493,0.001,0.975,0.118,1.56,0.364c0.874,0.361,1.91,1.039,3.198,1.7
	c1.282,0.654,2.886,1.275,4.815,1.272c0.54,0,1.101-0.047,1.68-0.149c0.922-0.167,1.862-0.487,2.906-0.864
	c1.554-0.566,3.301-1.273,4.991-1.826c1.682-0.558,3.318-0.936,4.45-0.927c0.71-0.002,1.169,0.137,1.411,0.292
	c0.127,0.08,0.219,0.163,0.316,0.296c0.096,0.134,0.197,0.326,0.284,0.629c0.272,0.975,0.822,1.811,1.483,2.438
	c0.998,0.947,2.201,1.482,3.404,1.819c1.209,0.333,2.443,0.462,3.597,0.463c1.078-0.002,2.075-0.111,2.952-0.332
	c1.697-0.431,2.968-0.598,3.888-0.596c1.006,0.004,1.567,0.176,2.015,0.408c0.337,0.179,0.638,0.417,0.98,0.773
	c0.513,0.527,1.083,1.328,1.846,2.273c0.765,0.942,1.74,2.014,3.098,3.006l-0.001-0.001c0.788,0.579,1.659,0.929,2.509,1.127
	c0.853,0.199,1.691,0.255,2.499,0.256c1.871-0.008,3.642-0.294,5-0.286c0.477,0,0.896,0.032,1.232,0.097
	c0.513,0.101,0.806,0.248,1.039,0.454c0.229,0.211,0.478,0.542,0.686,1.298c0.235,0.881,0.654,1.698,1.345,2.312
	c0.685,0.619,1.613,0.918,2.426,0.907c0.988-0.007,1.828-0.338,2.571-0.775c1.111-0.667,2.051-1.621,2.787-2.75
	c0.723-1.131,1.256-2.452,1.266-3.936C123.61,21.837,123.557,21.375,123.435,20.916z M88.838,5.753L88.838,5.753L88.838,5.753
	L88.838,5.753z M41.141,6.13L41.141,6.13c0,0,0,0.001-0.001,0.001L41.141,6.13z"/>
<polygon fill="#414042" points="68.009,2.021 68.011,2.02 68.046,1.999 "/>
<polygon fill="#9E271D" points="696.312,103.349 549.443,103.349 513.17,58.704 549.443,13.129 696.312,13.129 "/>
<polygon fill="#EF4136" points="700.085,98.658 553.218,98.658 516.943,54.014 553.218,8.439 700.085,8.439 "/>
<g>
	<g>
		<path fill="#9E271D" d="M575,42.283c0-1.573,2.926-1.896,2.926-1.896c2.764,0,3.318,2.061,3.318,2.061s0,5.999,0,7.572
			c0,1.588-3.318,2.212-3.318,2.212v9.005c3.08,0,3.318,3.155,3.318,3.155v12.475h9.231c0,0,0-13.583,0-15.163
			c0-1.572-2.521-4.735-2.521-4.735c2.227-1.731,2.521-6.159,2.521-6.159s0-8.051,0-8.997c0-0.943-1.256-10.73-12.469-10.73
			c-11.211,0-12.634,8.633-12.634,11.677c0,3.047,0,34.108,0,34.108h9.796C575.168,76.867,575,43.865,575,42.283z"/>
		<path fill="#9E271D" d="M620.46,44.975v-3.162c0,0-1.301-10.79-12.172-10.79c-10.862,0-12.636,8.74-12.636,10.79
			c0,2.053,0,24.318,0,24.318s0.615,9.789,12.409,9.789c11.785,0,12.398-7.582,12.398-9.472c0-1.897,0-4.744,0-4.744h-8.741v1.741
			c0,0-0.133,3.003-3.657,3.003c-3.53,0-3.371-3.163-3.371-3.163v-4.891h15.77v-9.946h-15.77v-5.999c0,0-0.014-2.37,2.987-2.37
			c3.015,0,3.172,2.206,3.172,2.206v2.845L620.46,44.975z"/>
		<path fill="#9E271D" d="M634.934,75.919V42.916c0,0-0.244-2.995,2.681-2.995s3.391,2.362,3.391,2.362v33.636h9.165V41.812
			c0,0-0.328-11.588-12.102-11.588c-11.787,0-13.008,11.748-13.008,11.748v33.947H634.934z"/>
		<path fill="#9E271D" d="M680.827,40.595c0-5.726-5.608-10.371-13.296-10.371c-7.694,0-12.647,4.645-12.647,10.371v24.638
			c0,5.725,4.953,10.369,12.585,10.369c7.625,0,13.358-4.644,13.358-10.369V40.595z M671.142,62.721
			c0,1.811-1.475,3.284-3.287,3.284l0,0c-1.819,0-3.29-1.473-3.29-3.284V43.105c0-1.809,1.471-3.28,3.29-3.28l0,0
			c1.812,0,3.287,1.472,3.287,3.28V62.721z"/>
	</g>
</g>
<path fill="#414042" d="M214.952,81.376l-0.001-0.001c-0.892-0.851-2.109-1.31-3.345-1.297c-0.353,0.003-0.625,0.073-0.889,0.157
	c-0.456,0.153-0.892,0.375-1.395,0.668c-1.489,0.878-3.557,2.441-6.349,4.756l0.008-0.007c-1.514,1.244-3.908,2.424-7.163,3.415
	c-3.218,0.984-6.695,1.481-10.448,1.481c-4.143-0.002-7.863-0.91-11.25-2.723c-3.385-1.814-6.45-4.548-9.198-8.27
	c-5.519-7.482-8.267-16.064-8.273-25.939c0.006-9.886,2.645-18.354,7.921-25.589c2.629-3.6,5.573-6.243,8.838-7.997
	c3.266-1.751,6.867-2.63,10.892-2.632c3.322,0,6.202,0.431,8.651,1.259c2.45,0.831,4.469,2.05,6.125,3.667l0.017,0.016l0.019,0.018
	c1.794,1.645,3.098,3.335,3.953,5.063c0.854,1.729,1.27,3.498,1.272,5.372c0,1.3-0.167,2.427-0.479,3.393
	c-0.312,0.967-0.762,1.775-1.36,2.47c-0.616,0.714-1.265,1.209-1.968,1.539c-0.704,0.328-1.472,0.497-2.368,0.498
	c-0.96,0-1.787-0.126-2.496-0.357c-0.709-0.232-1.303-0.564-1.825-1.009l-0.001-0.001c-0.536-0.457-0.895-0.927-1.133-1.431
	c-0.236-0.504-0.36-1.053-0.361-1.71c0.005-1.375,0.428-2.663,1.384-4.003c0.599-0.835,1.069-1.619,1.405-2.385
	c0.333-0.765,0.541-1.519,0.542-2.297c0.002-0.695-0.145-1.389-0.443-2.013c-0.298-0.626-0.74-1.174-1.273-1.627l-0.003-0.002
	c-1.075-0.922-2.476-1.376-3.944-1.368c-1.34-0.004-2.641,0.374-3.775,1.094c-1.138,0.719-2.111,1.751-2.953,3.035
	c-1.7,2.594-2.508,5.785-2.506,9.448c-0.001,1.944,0.43,3.846,1.271,5.646c0.841,1.803,2.083,3.505,3.691,5.112l0.013,0.013
	l0.016,0.015c3.276,3.122,7.455,4.708,12.216,4.694c2.41,0.001,4.7-0.46,6.818-1.39c2.119-0.928,4.059-2.317,5.803-4.125
	c1.759-1.822,3.096-3.912,3.98-6.232c0.886-2.32,1.318-4.864,1.318-7.6c0.002-3.505-0.756-6.832-2.265-9.91
	c-1.508-3.08-3.756-5.905-6.696-8.472c-5.929-5.185-13.565-7.756-22.642-7.747c-5.753-0.001-11.08,1.161-15.913,3.496
	c-4.834,2.333-9.162,5.831-12.967,10.435c-7.614,9.199-11.417,20.546-11.409,33.794c-0.009,13.255,3.877,24.703,11.646,34.092
	l0.012,0.015l-0.004-0.005c3.886,4.625,8.316,8.135,13.268,10.475c4.951,2.342,10.411,3.506,16.317,3.505
	c8.161,0.003,15.389-1.908,21.557-5.76c3.034-1.896,5.357-3.733,6.984-5.596c0.812-0.933,1.452-1.876,1.896-2.851
	c0.444-0.973,0.69-1.984,0.689-2.998c0.001-0.618-0.115-1.234-0.361-1.8C215.771,82.304,215.402,81.797,214.952,81.376z"/>
<path fill="#414042" d="M235.488,11.906c-1.078-0.757-2.403-1.078-3.834-1.076c-1.035-0.001-2.042,0.215-2.954,0.653
	c-0.914,0.437-1.723,1.087-2.412,1.897c-1.386,1.612-2.094,3.648-2.084,5.851c0.001,1.114,0.113,2.129,0.366,3.052
	c0.372,1.378,1.104,2.58,2.203,3.375c1.096,0.8,2.459,1.144,3.929,1.141c1.036,0.003,2.054-0.263,2.953-0.774
	c0.902-0.51,1.683-1.246,2.354-2.151c1.313-1.757,2.028-3.752,2.022-5.833c0-1.058-0.111-2.026-0.362-2.909
	C237.301,13.813,236.569,12.659,235.488,11.906z"/>
<path fill="#414042" d="M234.743,37.571c-1.019-0.808-2.316-1.165-3.684-1.16c-0.917,0-1.79,0.151-2.582,0.498
	c-1.195,0.514-2.133,1.5-2.669,2.704c-0.547,1.208-0.768,2.62-0.771,4.247v0.021l0.595,24.969l-0.595,24.968v0.016
	c0.001,1.086,0.102,2.074,0.329,2.971c0.335,1.339,0.986,2.515,2.008,3.319c1.019,0.808,2.316,1.164,3.685,1.159
	c0.916,0,1.789-0.151,2.58-0.498c1.195-0.513,2.132-1.499,2.669-2.703c0.547-1.208,0.769-2.62,0.771-4.248v-0.014l-0.595-24.976
	l0.595-24.968V43.86c0-1.086-0.102-2.073-0.329-2.971C236.416,39.551,235.765,38.375,234.743,37.571z"/>
<path fill="#414042" d="M272.21,48.097h0.017c1.071,0,2.039-0.084,2.915-0.271c1.307-0.279,2.451-0.798,3.292-1.69
	c0.417-0.442,0.739-0.972,0.944-1.543c0.207-0.572,0.298-1.182,0.298-1.803c0.001-0.856-0.16-1.686-0.525-2.43
	c-0.544-1.127-1.548-1.962-2.732-2.436c-1.19-0.482-2.578-0.678-4.191-0.68h-0.04l-8.056,0.398l0.315-11.852v-0.015
	c0-1.086-0.102-2.073-0.329-2.971c-0.335-1.339-0.987-2.515-2.009-3.319c-1.019-0.808-2.316-1.164-3.684-1.159
	c-0.917,0-1.79,0.151-2.581,0.498c-1.195,0.514-2.132,1.5-2.669,2.704c-0.547,1.208-0.769,2.62-0.771,4.247v0.009l0.209,11.746
	l-3.673-0.167h-0.034c-1.075,0-2.045,0.087-2.925,0.28c-1.312,0.288-2.463,0.83-3.298,1.745c-0.413,0.454-0.731,0.992-0.933,1.572
	c-0.203,0.581-0.293,1.197-0.293,1.829c-0.001,0.841,0.162,1.661,0.532,2.394c0.553,1.11,1.56,1.918,2.738,2.375
	c1.187,0.466,2.567,0.655,4.178,0.657c0.883-0.001,2.197-0.076,3.978-0.222l0.114,36.511v0.047c0,2.624,0.222,4.951,0.684,6.995
	c0.692,3.058,1.945,5.52,3.867,7.218c0.957,0.846,2.072,1.486,3.301,1.902c1.229,0.417,2.569,0.615,4,0.615
	c3.166,0.001,6.337-0.976,9.451-2.828c1.557-0.928,2.779-1.865,3.673-2.898c0.445-0.518,0.808-1.064,1.063-1.652
	c0.256-0.586,0.401-1.217,0.4-1.855c0-0.541-0.066-1.064-0.233-1.568c-0.24-0.752-0.769-1.455-1.471-1.866
	c-0.7-0.417-1.488-0.564-2.294-0.565c-0.354,0.005-0.577,0.066-0.834,0.135c-0.736,0.213-1.677,0.621-3.025,1.261
	c-1.618,0.776-2.938,1.108-3.875,1.103c-1.108,0-1.837-0.231-2.304-0.554c-0.463-0.328-0.783-0.764-1.002-1.587
	c-0.234-0.906-0.448-2.589-0.581-4.909c-0.137-2.325-0.206-5.311-0.206-8.941l0.226-26.663L272.21,48.097z"/>
<path fill="#414042" d="M336.267,39.358c-0.569-0.933-1.34-1.702-2.272-2.207c-0.932-0.508-1.997-0.741-3.11-0.74
	c-0.92,0-1.797,0.155-2.591,0.51c-1.199,0.526-2.131,1.529-2.665,2.749c-0.542,1.223-0.763,2.653-0.766,4.307l0.354,25.61
	c-1.539,5.437-4.07,10.333-7.624,14.722c-1.817,2.157-3.627,3.728-5.394,4.744c-1.773,1.018-3.489,1.493-5.23,1.496
	c-1.819-0.002-3.371-0.369-4.735-1.08c-1.364-0.713-2.56-1.78-3.615-3.28c-2.112-3.005-3.235-7.073-3.237-12.337l0.951-26.161
	v-0.023c-0.009-3.39-0.449-6.045-1.561-8.051c-0.558-0.998-1.312-1.829-2.252-2.385c-0.938-0.56-2.028-0.823-3.16-0.82
	c-1.76-0.014-3.423,0.632-4.668,1.846c-0.577,0.555-1.05,1.132-1.395,1.765c-0.344,0.629-0.555,1.331-0.553,2.054
	c0.003,0.602,0.091,1.376,0.253,2.494c0.162,1.109,0.403,2.526,0.723,4.263c0.622,3.378,0.926,6.247,0.927,8.573l-0.713,17.955
	v0.031c-0.006,6.998,1.827,13.142,5.519,18.25l0.006,0.008l0.008,0.01c1.873,2.516,4.177,4.447,6.864,5.724
	c2.687,1.279,5.737,1.901,9.093,1.9c4.728,0.005,9.128-1.37,13.045-4.071c2.874-1.978,5.488-4.656,7.869-7.993
	c0.042,1.13,0.074,2.267,0.074,3.425c-0.007,7.366-1.881,13.134-5.543,17.542c-1.833,2.2-3.935,3.815-6.348,4.9
	c-2.413,1.083-5.15,1.638-8.264,1.639c-3.699-0.001-7.221-0.695-10.615-2.089c-1.803-0.742-3.264-1.301-4.405-1.686
	c-0.572-0.192-1.063-0.34-1.495-0.447c-0.438-0.104-0.792-0.176-1.213-0.181c-0.594,0-1.171,0.081-1.718,0.283
	c-0.822,0.292-1.546,0.914-1.954,1.689c-0.416,0.774-0.563,1.639-0.565,2.562c-0.001,0.783,0.222,1.551,0.602,2.239
	c0.573,1.036,1.465,1.922,2.618,2.766c1.157,0.842,2.592,1.64,4.323,2.429c4.624,2.107,9.451,3.17,14.423,3.168
	c4.731,0,9.009-0.819,12.788-2.493c3.778-1.671,7.041-4.197,9.734-7.521c5.38-6.627,8.015-15.364,8.01-25.991
	c-0.001-4.823-0.476-12.004-1.417-21.613c1.65-10.567,2.484-18.188,2.488-23.005C337.849,43.711,337.404,41.236,336.267,39.358z"/>
<polygon fill="#414042" points="414.182,56.657 414.179,56.661 414.178,56.662 "/>
<path fill="#414042" d="M417.702,25.247c-1.737-3.527-4.328-6.764-7.725-9.707c-6.826-5.925-15.436-8.883-25.552-8.874
	c-6.889,0-12.912,1.013-18.052,3.083l-0.017,0.007l-0.019,0.008c-1.407,0.606-2.583,1.533-3.388,2.746
	c-0.809,1.211-1.231,2.664-1.32,4.257l-0.004,0.072l0.542,12.922c-5.199,0.961-9.555,3.092-12.892,6.435
	c-1.8,1.8-3.182,3.767-4.107,5.891c-0.927,2.123-1.39,4.397-1.389,6.771c-0.007,4.745,1.795,9.25,5.229,13.337l0.014,0.017
	l0.019,0.021c3.405,3.807,8.045,6.386,13.736,7.783l-0.793,23.677v0.021c0,1.536,0.295,2.943,0.96,4.147
	c0.651,1.187,1.667,2.127,2.907,2.754l-0.001,0.002c0.008,0.004,0.018,0.007,0.026,0.012c0.011,0.005,0.021,0.013,0.032,0.019
	l0.001-0.003c0.937,0.508,2.001,0.758,3.108,0.755c0.787,0.001,1.541-0.265,2.189-0.682c0.652-0.418,1.228-0.981,1.778-1.666
	c1.2-1.493,1.762-3.406,1.756-5.518c0-0.972-0.05-3.367-0.149-7.251c-0.092-3.564-0.225-8.384-0.399-14.431
	c0.126,0.003,0.247,0.007,0.384,0.01c0.929,0.02,2.108,0.03,3.543,0.03c8.123,0,15.215-1.242,21.253-3.776
	c6.035-2.53,11.002-6.368,14.807-11.457c4.106-5.441,6.137-12.194,6.132-20.058C420.312,32.581,419.44,28.771,417.702,25.247z
	 M374.026,60.9c-0.002-6.075-0.012-10.934-0.03-14.548c-0.013-2.348-0.028-4.162-0.047-5.476c0.812,0.307,1.715,0.793,2.703,1.5
	c1.723,1.227,3.675,3.08,5.802,5.556l-0.006-0.007c0.736,0.865,1.454,1.554,2.215,2.062c0.756,0.503,1.589,0.844,2.498,0.846
	c0.688,0,1.368-0.122,1.999-0.375c0.632-0.252,1.208-0.632,1.709-1.106c0.54-0.51,0.956-1.141,1.219-1.835
	c0.265-0.695,0.381-1.446,0.381-2.229c0.002-1.817-0.566-3.606-1.608-5.281c-1.043-1.68-2.55-3.27-4.49-4.816
	c-3.575-2.848-7.736-4.667-12.377-5.463c-0.119-4.533-0.186-8.109-0.201-10.686c2.805-0.763,6.315-1.168,10.514-1.167
	c6.62,0.008,12.163,1.858,16.856,5.565c2.336,1.852,4.039,3.888,5.17,6.12c1.128,2.233,1.696,4.674,1.697,7.398
	c0,4.101-0.757,7.596-2.223,10.547c-1.469,2.951-3.647,5.383-6.624,7.359c-6.045,4.005-13.777,6.055-23.325,6.057
	C375.126,60.922,374.518,60.915,374.026,60.9z M357.57,54.696c-1.718-2.125-2.46-4.062-2.462-5.897
	c0.001-0.924,0.186-1.794,0.569-2.664c0.385-0.868,0.977-1.736,1.809-2.604c1.289-1.339,2.971-2.263,5.156-2.767
	c0.176,5.057,0.272,11.001,0.289,17.826C360.636,57.596,358.868,56.297,357.57,54.696z"/>
<path fill="#414042" d="M436.803,11.906c-1.077-0.757-2.403-1.078-3.834-1.076c-1.035-0.001-2.042,0.215-2.954,0.653
	c-0.914,0.437-1.723,1.087-2.412,1.897c-1.387,1.612-2.094,3.648-2.084,5.851c0,1.114,0.113,2.129,0.365,3.052
	c0.373,1.378,1.104,2.58,2.204,3.375c1.096,0.8,2.459,1.144,3.929,1.141c1.037,0.003,2.054-0.263,2.954-0.774
	c0.902-0.51,1.682-1.246,2.354-2.151c1.312-1.757,2.027-3.752,2.021-5.833c0-1.058-0.111-2.026-0.362-2.909
	C438.616,13.813,437.884,12.659,436.803,11.906z"/>
<path fill="#414042" d="M436.059,37.571c-1.019-0.808-2.316-1.165-3.685-1.16c-0.917,0-1.79,0.151-2.581,0.498
	c-1.195,0.514-2.133,1.5-2.67,2.704c-0.547,1.208-0.769,2.62-0.771,4.247v0.021l0.594,24.965l-0.594,24.971v0.016
	c0,1.086,0.102,2.074,0.328,2.971c0.335,1.339,0.986,2.515,2.008,3.319c1.019,0.808,2.317,1.164,3.686,1.159
	c0.916,0,1.789-0.151,2.58-0.498c1.195-0.513,2.132-1.499,2.67-2.703c0.547-1.208,0.769-2.62,0.771-4.248v-0.014l-0.594-24.972
	l0.594-24.972V43.86c0-1.086-0.102-2.073-0.329-2.971C437.731,39.551,437.08,38.375,436.059,37.571z"/>
<path fill="#414042" d="M500.362,85.217c-0.444-0.446-0.986-0.794-1.576-1.014c-0.59-0.221-1.22-0.319-1.865-0.318
	c-0.552,0.006-1.009,0.143-1.498,0.331c-0.727,0.288-1.517,0.727-2.451,1.325c-0.931,0.598-1.996,1.356-3.208,2.28
	c-2.871,2.186-6.547,3.317-11.227,3.322c-2.259-0.001-4.334-0.45-6.289-1.349c-1.953-0.9-3.791-2.259-5.523-4.122
	c-3.023-3.26-4.876-7.051-5.604-11.515c5.142,0.943,9.591,1.424,13.37,1.425c7.493,0.001,13.888-1.508,19.092-4.614
	c2.643-1.574,4.7-3.584,6.069-6.006c1.373-2.421,2.042-5.224,2.04-8.311c0-3.046-0.528-5.859-1.607-8.395
	c-1.078-2.536-2.706-4.783-4.838-6.7c-2.134-1.921-4.617-3.367-7.404-4.32c-2.788-0.954-5.876-1.419-9.245-1.419
	c-3.409-0.001-6.635,0.604-9.636,1.82c-3.001,1.215-5.773,3.038-8.292,5.434c-4.628,4.395-7.909,9.997-9.868,16.672
	c-0.116-0.044-0.238-0.101-0.352-0.14c-0.629-0.211-1.222-0.345-1.835-0.347c-0.861,0.002-1.618,0.085-2.316,0.314l-0.051,0.017
	l-0.049,0.021c-0.942,0.38-1.756,1.069-2.251,1.957c-0.501,0.886-0.7,1.908-0.7,3c-0.001,0.883,0.171,1.749,0.518,2.546
	c0.52,1.201,1.417,2.217,2.571,3.042c0.927,0.663,2.031,1.214,3.296,1.687c0.499,7.944,3.182,14.931,8.064,20.756
	c2.571,3.075,5.626,5.416,9.123,6.967c3.496,1.553,7.418,2.316,11.719,2.315c5.583,0.004,10.827-1.514,15.609-4.512
	c2.354-1.477,4.164-2.886,5.45-4.314c0.643-0.715,1.155-1.439,1.52-2.198c0.364-0.757,0.576-1.559,0.575-2.374
	c0-0.606-0.106-1.208-0.333-1.768C501.135,86.151,500.79,85.644,500.362,85.217z M489.269,59.79
	c-0.653,1.003-1.668,1.929-3.135,2.751c-2.94,1.654-6.987,2.547-12.175,2.545c-4.663,0-8.877-0.495-12.653-1.465
	c1.153-4.415,3.227-8.287,6.272-11.678c1.643-1.826,3.445-3.16,5.432-4.051c1.987-0.889,4.169-1.34,6.601-1.341
	c1.718,0,3.208,0.251,4.492,0.725c1.285,0.476,2.371,1.169,3.312,2.108c0.961,0.963,1.657,2.004,2.125,3.15
	c0.466,1.146,0.707,2.406,0.708,3.82C490.242,57.686,489.919,58.783,489.269,59.79z"/>
</svg>
