<?xml version="1.0" encoding="utf-8"?>
<!-- Generator: Adobe Illustrator 15.0.2, SVG Export Plug-In  -->
<!DOCTYPE svg PUBLIC "-//W3C//DTD SVG 1.1//EN" "http://www.w3.org/Graphics/SVG/1.1/DTD/svg11.dtd" [
	<!ENTITY ns_flows "http://ns.adobe.com/Flows/1.0/">
]>
<svg version="1.1"
	 xmlns="http://www.w3.org/2000/svg" xmlns:xlink="http://www.w3.org/1999/xlink" xmlns:a="http://ns.adobe.com/AdobeSVGViewerExtensions/3.0/"
	 x="0px" y="0px" width="42px" height="29px" viewBox="0 0 84 58" overflow="visible" enable-background="new 0 0 84 58"
	 xml:space="preserve">
<defs>
</defs>
<path fill="#C2B59B" d="M83.605,5.157c0,2.848-2.31,5.157-5.157,5.157H5.157C2.31,10.313,0,8.005,0,5.157l0,0
	C0,2.309,2.31,0,5.157,0h73.291C81.296,0,83.605,2.309,83.605,5.157L83.605,5.157z"/>
<path fill="#C2B59B" d="M83.605,28.769c0,2.848-2.31,5.157-5.157,5.157H5.157C2.31,33.925,0,31.617,0,28.769l0,0
	c0-2.848,2.31-5.157,5.157-5.157h73.291C81.296,23.612,83.605,25.92,83.605,28.769L83.605,28.769z"/>
<path fill="#C2B59B" d="M83.605,52.38c0,2.848-2.31,5.157-5.157,5.157H5.157C2.31,57.537,0,55.228,0,52.38l0,0
	c0-2.848,2.31-5.157,5.157-5.157h73.291C81.296,47.223,83.605,49.532,83.605,52.38L83.605,52.38z"/>
</svg>
